<?xml version="1.0" standalone="no"?>
<!DOCTYPE svg PUBLIC "-//W3C//DTD SVG 20010904//EN"
 "http://www.w3.org/TR/2001/REC-SVG-20010904/DTD/svg10.dtd">
<svg version="1.0" xmlns="http://www.w3.org/2000/svg"
 width="512.000000pt" height="512.000000pt" viewBox="0 0 512.000000 512.000000"
 preserveAspectRatio="xMidYMid meet">

<g transform="translate(0.000000,512.000000) scale(0.100000,-0.100000)"
fill="#000000" stroke="none">
<path d="M80 4320 l0 -720 720 0 720 0 0 280 0 280 160 0 160 0 0 -234 c0
-235 0 -235 -22 -241 -48 -15 -189 -118 -245 -179 -190 -208 -257 -489 -179
-756 l24 -84 -26 -51 c-23 -43 -27 -62 -27 -135 1 -77 4 -91 34 -148 53 -98
140 -157 250 -168 l59 -7 23 -51 c29 -62 138 -175 199 -206 25 -12 46 -23 47
-24 2 -2 -7 -30 -18 -64 -19 -55 -24 -62 -47 -62 -37 0 -215 -45 -282 -70
-368 -143 -667 -466 -776 -838 -43 -147 -54 -256 -54 -519 l0 -243 1280 0
1280 0 0 520 0 519 33 5 c202 29 323 64 452 128 132 67 215 127 326 238 169
168 253 309 336 570 40 124 57 160 115 248 39 59 75 128 84 160 34 115 -4 242
-97 326 l-49 44 0 197 c0 236 -6 261 -75 330 -101 102 -229 102 -330 0 -66
-65 -75 -99 -75 -274 0 -128 -2 -141 -17 -141 -68 -1 -171 -91 -203 -176 -28
-77 -25 -128 15 -253 19 -59 35 -114 35 -122 0 -8 -16 -47 -35 -87 -125 -261
-350 -445 -643 -524 -67 -18 -108 -21 -306 -22 l-229 -1 -18 54 c-11 30 -18
55 -16 56 1 2 22 13 47 25 61 31 170 144 199 206 l23 51 60 7 c70 7 166 54
204 99 14 16 37 53 52 81 22 43 26 64 26 136 0 72 -4 93 -26 135 l-26 51 26
84 c33 109 37 306 9 410 -39 143 -129 294 -232 388 l-57 52 156 0 156 0 0 280
0 280 160 0 160 0 0 -280 0 -280 720 0 720 0 0 720 0 720 -720 0 -720 0 0
-360 0 -360 -160 0 -160 0 0 360 0 360 -720 0 -720 0 0 -360 0 -360 -160 0
-160 0 0 360 0 360 -720 0 -720 0 0 -720z m1280 0 l0 -560 -560 0 -560 0 0
560 0 560 560 0 560 0 0 -560z m1760 0 l0 -560 -560 0 -560 0 0 560 0 560 560
0 560 0 0 -560z m1760 0 l0 -560 -560 0 -560 0 0 560 0 560 560 0 560 0 0
-560z m-2200 -749 c102 -36 169 -78 251 -160 130 -131 183 -255 184 -431 0
-128 -19 -214 -43 -201 -10 5 -38 12 -63 16 l-46 7 -6 58 c-6 67 -45 148 -90
186 -62 52 -105 66 -232 75 -241 17 -380 51 -577 141 l-67 30 -50 -36 c-65
-48 -142 -133 -180 -199 -26 -45 -60 -149 -75 -228 -5 -22 -13 -27 -68 -37
-73 -14 -72 -14 -87 73 -24 134 -5 259 56 384 52 107 178 232 285 284 123 61
166 67 473 63 251 -2 275 -4 335 -25z m1695 -316 c24 -24 25 -28 25 -183 l0
-159 -47 23 c-25 13 -61 24 -80 24 l-33 0 0 135 c0 131 1 137 25 160 15 16 36
25 55 25 19 0 40 -9 55 -25z m-2286 -181 c158 -64 317 -98 524 -112 115 -9
119 -10 150 -41 l32 -31 0 -328 0 -327 -27 -51 c-40 -76 -70 -107 -140 -145
l-63 -34 -245 0 -245 0 -51 27 c-76 40 -107 70 -145 140 l-34 63 -3 278 c-4
304 1 351 48 444 32 62 100 143 121 143 7 0 42 -12 78 -26z m2211 -294 c45
-45 20 -82 -80 -115 -44 -15 -80 -32 -80 -39 0 -27 43 -136 53 -136 7 0 48 12
91 26 90 30 157 83 178 140 15 41 22 42 54 7 31 -34 48 -92 40 -136 -6 -35
-99 -187 -113 -187 -4 0 -91 28 -194 62 l-186 62 -31 96 c-36 109 -38 129 -17
171 28 53 68 69 173 69 79 0 95 -3 112 -20z m-2620 -300 c0 -177 1 -173 -63
-146 -125 52 -126 238 -2 292 66 29 65 31 65 -146z m1369 132 c49 -36 66 -70
66 -132 0 -44 -5 -66 -21 -86 -28 -39 -63 -63 -101 -70 l-33 -6 0 162 0 163
33 -7 c17 -3 43 -14 56 -24z m1327 -425 c2 -2 -11 -51 -30 -109 -64 -196 -150
-342 -281 -473 -208 -207 -492 -325 -787 -325 l-78 0 0 -520 0 -520 -288 0
-288 0 -70 317 -70 318 29 73 30 73 72 -71 72 -71 79 358 79 358 155 6 c169 7
271 25 393 70 263 96 490 298 618 551 l39 77 161 -54 c89 -30 163 -56 165 -58z
m-1850 -418 l22 -66 -114 -114 -114 -114 -114 114 -114 114 19 56 c11 31 21
62 24 69 3 10 46 12 186 10 l182 -3 23 -66z m-341 -429 c-23 -26 -35 -32 -102
-59 l-50 -20 -32 147 c-18 81 -35 158 -38 172 -4 19 26 -6 118 -97 l123 -122
-19 -21z m459 87 l-37 -166 -50 20 c-67 27 -79 33 -102 58 l-19 22 119 119
c65 66 120 118 122 116 2 -2 -13 -78 -33 -169z m-765 -210 l74 -338 72 71 72
71 30 -73 29 -73 -70 -318 -70 -317 -288 0 -288 0 0 400 0 400 -80 0 -80 0 0
-400 0 -400 -160 0 -160 0 0 154 c0 177 11 274 46 394 100 344 351 613 699
748 102 40 89 64 174 -319z m494 -25 l47 -48 -37 -92 c-33 -84 -39 -92 -63
-92 -24 0 -30 8 -63 92 l-37 92 47 48 c26 26 50 48 53 48 3 0 27 -22 53 -48z
m21 -654 c31 -145 60 -271 62 -280 5 -17 -6 -18 -136 -18 -130 0 -141 1 -136
18 2 9 31 135 62 280 46 208 61 262 74 262 13 0 28 -54 74 -262z"/>
<path d="M400 4640 l0 -80 400 0 400 0 0 80 0 80 -400 0 -400 0 0 -80z"/>
<path d="M400 4320 l0 -80 400 0 400 0 0 80 0 80 -400 0 -400 0 0 -80z"/>
<path d="M400 4000 l0 -80 400 0 400 0 0 80 0 80 -400 0 -400 0 0 -80z"/>
<path d="M2160 4640 l0 -80 400 0 400 0 0 80 0 80 -400 0 -400 0 0 -80z"/>
<path d="M2160 4320 l0 -80 400 0 400 0 0 80 0 80 -400 0 -400 0 0 -80z"/>
<path d="M2160 4000 l0 -80 400 0 400 0 0 80 0 80 -400 0 -400 0 0 -80z"/>
<path d="M3920 4640 l0 -80 400 0 400 0 0 80 0 80 -400 0 -400 0 0 -80z"/>
<path d="M3920 4320 l0 -80 400 0 400 0 0 80 0 80 -400 0 -400 0 0 -80z"/>
<path d="M3920 4000 l0 -80 400 0 400 0 0 80 0 80 -400 0 -400 0 0 -80z"/>
</g>
</svg>
